<svg width="24" height="24" viewBox="0 0 24 24" fill="none" xmlns="http://www.w3.org/2000/svg">
<path d="M19.7064 0H4.29356C1.92609 0 0 1.92609 0 4.29356V19.7065C0 22.0739 1.92609 24 4.29356 24H19.7065C22.0739 24 24 22.0739 24 19.7064V4.29356C24 1.92609 22.0739 0 19.7064 0ZM22.5938 19.7064C22.5938 21.2985 21.2985 22.5938 19.7064 22.5938H4.29356C2.7015 22.5938 1.40625 21.2985 1.40625 19.7064V4.29356C1.40625 2.7015 2.7015 1.40625 4.29356 1.40625H19.7065C21.2985 1.40625 22.5938 2.7015 22.5938 4.29356V19.7064Z" fill="white"/>
<path d="M20.2845 5.27189H9.57543C9.28101 4.39744 8.4539 3.76566 7.48143 3.76566C6.50896 3.76566 5.68185 4.39744 5.38743 5.27189H3.71582C3.32751 5.27189 3.0127 5.5867 3.0127 5.97502C3.0127 6.36333 3.32751 6.67814 3.71582 6.67814H5.38748C5.6819 7.55259 6.50901 8.18437 7.48148 8.18437C8.45395 8.18437 9.28105 7.55259 9.57548 6.67814H20.2846C20.6729 6.67814 20.9877 6.36333 20.9877 5.97502C20.9877 5.5867 20.6729 5.27189 20.2845 5.27189ZM7.48143 6.77812C7.0386 6.77812 6.67832 6.41784 6.67832 5.97502C6.67832 5.53219 7.0386 5.17191 7.48143 5.17191C7.92426 5.17191 8.28454 5.53219 8.28454 5.97502C8.28454 6.41784 7.92426 6.77812 7.48143 6.77812Z" fill="white"/>
<path d="M20.2845 11.2969H18.6129C18.3185 10.4224 17.4913 9.79063 16.5189 9.79063C15.5465 9.79063 14.7194 10.4224 14.4249 11.2969H3.71582C3.32751 11.2969 3.0127 11.6117 3.0127 12C3.0127 12.3883 3.32751 12.7031 3.71582 12.7031H14.4249C14.7194 13.5776 15.5465 14.2094 16.5189 14.2094C17.4914 14.2094 18.3185 13.5776 18.6129 12.7031H20.2846C20.6729 12.7031 20.9877 12.3883 20.9877 12C20.9877 11.6117 20.6729 11.2969 20.2845 11.2969ZM16.5189 12.8031C16.0761 12.8031 15.7158 12.4428 15.7158 12C15.7158 11.5572 16.0761 11.1969 16.5189 11.1969C16.9618 11.1969 17.322 11.5572 17.322 12C17.322 12.4428 16.9618 12.8031 16.5189 12.8031Z" fill="white"/>
<path d="M20.2845 17.3218H12.5879C12.2935 16.4474 11.4664 15.8156 10.4939 15.8156C9.52148 15.8156 8.69437 16.4474 8.39995 17.3218H3.71582C3.32751 17.3218 3.0127 17.6367 3.0127 18.025C3.0127 18.4133 3.32751 18.7281 3.71582 18.7281H8.39995C8.69437 19.6026 9.52148 20.2343 10.4939 20.2343C11.4664 20.2343 12.2935 19.6026 12.5879 18.7281H20.2846C20.6729 18.7281 20.9877 18.4133 20.9877 18.025C20.9877 17.6367 20.6729 17.3218 20.2845 17.3218ZM10.4939 18.8281C10.0511 18.8281 9.69084 18.4678 9.69084 18.025C9.69084 17.5822 10.0511 17.2219 10.4939 17.2219C10.9368 17.2219 11.2971 17.5821 11.2971 18.025C11.2971 18.4678 10.9368 18.8281 10.4939 18.8281Z" fill="white"/>
</svg>
